# xmcd
#
# Track frame offsets:
#	150
#	12859
#	27321
#	46067
#	63886
#	78028
#	91054
#	105470
#	123395
#	135976
#	147133
#	165513
#	178452
#	193646
#	206779
#	217790
#	234308
#	249823
#
# Disc length: 3583 seconds
#
# Revision: 6
# Processed by: cddbd v1.5.2PL0 Copyright (c) Steve Scherf et al.
# Submitted via: EasyCDDAExtractor 16.1.0.1
#
DISCID=dc0dfd12
DTITLE=Daniele Lamano - Il Meglio
DYEAR=2001
DGENRE=Folk Organetto
TTITLE0=Giocando Sui Tasti (Mazurka)
TTITLE1=A Modo Mio (Rock N' Roll)
TTITLE2=Spallata (Tarantella)
TTITLE3=Foxito (Fox Trot)
TTITLE4=Senza Te (Valzer Lento)
TTITLE5=Casomai (Limbo)
TTITLE6=La Valle (Valzer)
TTITLE7=Zumparella (Saltarello)
TTITLE8=La Sbruffata (Polka)
TTITLE9=Parigi (Valzer)
TTITLE10=Paisa' (Tarantella)
TTITLE11=Spallata Live (Tarantella)
TTITLE12=Melinda (Beguine)
TTITLE13=La Commare (Mazurka)
TTITLE14=Teresina (Polka)
TTITLE15=Passione (Tango)
TTITLE16=Muchacho (Cha Cha Cha)
TTITLE17=Ai Li Calli (Hully Gully)
EXTD=
EXTT0=
EXTT1=
EXTT2=
EXTT3=
EXTT4=
EXTT5=
EXTT6=
EXTT7=
EXTT8=
EXTT9=
EXTT10=
EXTT11=
EXTT12=
EXTT13=
EXTT14=
EXTT15=
EXTT16=
EXTT17=
PLAYORDER=
